<svg width="68" height="68" viewBox="0 0 68 68" fill="none" xmlns="http://www.w3.org/2000/svg">
<path d="M62.3337 48.1667V36.8333C62.3337 21.1853 49.6484 8.5 34.0003 8.5C18.3523 8.5 5.66699 21.1853 5.66699 36.8333V48.1667M21.2503 59.5C17.3383 59.5 14.167 56.3287 14.167 52.4167V43.9167C14.167 40.0046 17.3383 36.8333 21.2503 36.8333C25.1623 36.8333 28.3337 40.0046 28.3337 43.9167V52.4167C28.3337 56.3287 25.1623 59.5 21.2503 59.5ZM46.7503 59.5C42.8383 59.5 39.667 56.3287 39.667 52.4167V43.9167C39.667 40.0046 42.8383 36.8333 46.7503 36.8333C50.6623 36.8333 53.8337 40.0046 53.8337 43.9167V52.4167C53.8337 56.3287 50.6623 59.5 46.7503 59.5Z" stroke="#009FC0" stroke-width="2" stroke-linecap="round" stroke-linejoin="round"/>
</svg>
