<svg width="51" height="51" viewBox="0 0 51 51" fill="none" xmlns="http://www.w3.org/2000/svg">
<g clip-path="url(#clip0_257_1179)">
<path d="M27.1673 42.4234C28.3211 42.4234 29.4489 42.0813 30.4082 41.4403C31.3674 40.7994 32.1151 39.8883 32.5566 38.8224C32.9982 37.7564 33.1136 36.5836 32.8885 35.452C32.6635 34.3204 32.1079 33.2811 31.2921 32.4653C30.4763 31.6494 29.4369 31.0939 28.3053 30.8688C27.1738 30.6437 26.0009 30.7593 24.935 31.2007C23.8691 31.6423 22.9581 32.3899 22.3171 33.3493C21.6761 34.3085 21.334 35.4364 21.334 36.5901C21.3357 38.1366 21.9509 39.6194 23.0444 40.7129C24.1381 41.8065 25.6208 42.4216 27.1673 42.4234ZM27.1673 32.4234C27.9914 32.4234 28.797 32.6677 29.4822 33.1256C30.1674 33.5834 30.7014 34.2342 31.0168 34.9955C31.3322 35.7569 31.4147 36.5947 31.2539 37.4029C31.0932 38.2112 30.6963 38.9536 30.1136 39.5364C29.5309 40.1191 28.7884 40.5159 27.9802 40.6766C27.172 40.8374 26.3342 40.7549 25.5728 40.4395C24.8114 40.1242 24.1607 39.5902 23.7029 38.9049C23.245 38.2197 23.0006 37.4142 23.0006 36.5901C23.0019 35.4854 23.4413 34.4263 24.2224 33.6452C25.0035 32.8641 26.0626 32.4246 27.1673 32.4234Z" fill="white"/>
<path d="M38.7638 39.6159L40.6944 39.153C40.8765 39.1094 41.0386 39.0057 41.1545 38.8587C41.2704 38.7117 41.3335 38.5299 41.3335 38.3427V34.8379C41.3335 34.6506 41.2704 34.4689 41.1545 34.3219C41.0386 34.1748 40.8765 34.0711 40.6944 34.0275L38.7639 33.5647C38.4527 33.49 38.1635 33.3428 37.9201 33.1349C37.6767 32.9271 37.4859 32.6647 37.3633 32.369C37.2409 32.0733 37.1901 31.7529 37.2152 31.4338C37.2403 31.1147 37.3404 30.8061 37.5077 30.5332L38.5518 28.8293C38.6496 28.6698 38.6908 28.4819 38.6688 28.2959C38.6468 28.11 38.5629 27.937 38.4305 27.8047L35.9523 25.3266C35.82 25.1943 35.6469 25.1104 35.4611 25.0884C35.2752 25.0664 35.0873 25.1076 34.9277 25.2054L33.2239 26.2495C32.951 26.4167 32.6423 26.5169 32.3233 26.5419C32.0042 26.567 31.6838 26.5162 31.3882 26.3937C31.0924 26.2712 30.83 26.0804 30.6222 25.837C30.4144 25.5936 30.2672 25.3045 30.1925 24.9933L29.7296 23.0626C29.686 22.8806 29.5822 22.7185 29.4352 22.6026C29.2882 22.4867 29.1064 22.4236 28.9192 22.4236H25.4144C25.2272 22.4236 25.0454 22.4866 24.8984 22.6026C24.7513 22.7185 24.6477 22.8806 24.6041 23.0626L24.1412 24.9931C24.0666 25.3044 23.9193 25.5936 23.7115 25.8369C23.5037 26.0804 23.2412 26.2711 22.9456 26.3937C22.6499 26.5162 22.3294 26.567 22.0103 26.5419C21.6912 26.5169 21.3827 26.4166 21.1098 26.2494L19.4059 25.2052L18.5352 26.6264L20.2389 27.6705C20.7361 27.9751 21.2983 28.1578 21.8797 28.2035C22.461 28.2492 23.0449 28.1567 23.5835 27.9334C24.1222 27.7102 24.6004 27.3627 24.9791 26.9191C25.3577 26.4757 25.6259 25.9489 25.7619 25.3819L26.0715 24.0902H28.2621L28.5719 25.3819C28.7078 25.9489 28.9761 26.4757 29.3546 26.9191C29.7332 27.3626 30.2114 27.7102 30.7501 27.9334C31.2887 28.1567 31.8726 28.2492 32.4539 28.2035C33.0352 28.1579 33.5974 27.9752 34.0946 27.6706L35.2384 26.9697L36.7875 28.5187L36.0866 29.6623C35.782 30.1595 35.5992 30.7218 35.5536 31.3031C35.5079 31.8844 35.6004 32.4683 35.8236 33.0069C36.0469 33.5457 36.3944 34.0239 36.8379 34.4025C37.2813 34.7811 37.8082 35.0493 38.3752 35.1853L39.6668 35.4949V37.6855L38.3752 37.9953C37.8082 38.1312 37.2814 38.3995 36.8379 38.778C36.3944 39.1567 36.0469 39.6349 35.8236 40.1735C35.6004 40.7121 35.5079 41.296 35.5535 41.8773C35.5993 42.4586 35.7819 43.0209 36.0865 43.518L36.7874 44.6619L35.2384 46.2109L34.0947 45.51C33.5975 45.2054 33.0352 45.0227 32.454 44.977C31.8726 44.9313 31.2888 45.0239 30.7501 45.247C30.2114 45.4703 29.7332 45.8179 29.3546 46.2613C28.976 46.7048 28.7077 47.2316 28.5717 47.7987L28.2621 49.0902H26.0715L25.7618 47.7987C25.6258 47.2316 25.3576 46.7049 24.979 46.2613C24.6004 45.8179 24.1222 45.4703 23.5836 45.247C23.0449 45.0239 22.4611 44.9313 21.8797 44.9769C21.2984 45.0227 20.7362 45.2053 20.2391 45.5099L18.5352 46.554L19.4059 47.9751L21.1098 46.931C21.3827 46.7639 21.6912 46.6636 22.0103 46.6385C22.3294 46.6134 22.6499 46.6642 22.9455 46.7868C23.2412 46.9093 23.5036 47.1 23.7114 47.3435C23.9192 47.5869 24.0664 47.876 24.1411 48.1872L24.6041 50.1179C24.6477 50.2999 24.7513 50.462 24.8984 50.5779C25.0454 50.6939 25.2272 50.7569 25.4144 50.7569H28.9192C29.1064 50.7569 29.2882 50.6939 29.4352 50.5779C29.5822 50.462 29.686 50.2999 29.7296 50.1179L30.1924 48.1873C30.2671 47.8761 30.4143 47.5869 30.6221 47.3435C30.8299 47.1001 31.0923 46.9093 31.3881 46.7868C31.6837 46.6643 32.0042 46.6135 32.3232 46.6386C32.6423 46.6637 32.951 46.764 33.2239 46.9311L34.9277 47.9752C35.0873 48.073 35.2752 48.1142 35.4611 48.0922C35.647 48.0702 35.8201 47.9863 35.9524 47.8539L38.4304 45.3759C38.5628 45.2435 38.6467 45.0704 38.6687 44.8845C38.6907 44.6987 38.6495 44.5108 38.5517 44.3511L37.5076 42.6473C37.3404 42.3744 37.2402 42.0658 37.2151 41.7468C37.19 41.4277 37.2408 41.1072 37.3633 40.8116C37.4859 40.5159 37.6766 40.2534 37.9201 40.0457C38.1634 39.8379 38.4526 39.6906 38.7638 39.6159Z" fill="white"/>
<path d="M49.6673 24.0898H46.334V19.9232C46.334 19.7022 46.2462 19.4902 46.0899 19.3339C45.9336 19.1777 45.7216 19.0898 45.5006 19.0898H42.1673C41.9463 19.0898 41.7343 19.1777 41.5781 19.3339C41.4218 19.4902 41.334 19.7022 41.334 19.9232V24.0898H38.834V25.7565H48.834V29.0898H39.6673V30.7565H48.834V34.0898H43.0006V35.7565H48.834V39.0898H43.0006V40.7565H48.834V44.0898H40.5006V45.7565H41.334V49.9232C41.334 50.1442 41.4218 50.3561 41.5781 50.5124C41.7343 50.6687 41.9463 50.7565 42.1673 50.7565H45.5006C45.7216 50.7565 45.9336 50.6687 46.0899 50.5124C46.2462 50.3561 46.334 50.1442 46.334 49.9232V45.7565H49.6673C49.8883 45.7565 50.1003 45.6687 50.2565 45.5124C50.4128 45.3561 50.5006 45.1442 50.5006 44.9232V24.9232C50.5006 24.7022 50.4128 24.4902 50.2565 24.3339C50.1003 24.1777 49.8883 24.0898 49.6673 24.0898ZM44.6673 24.0898H43.0006V20.7565H44.6673V24.0898ZM44.6673 49.0898H43.0006V45.7565H44.6673V49.0898Z" fill="white"/>
<path d="M13.2376 24.6857L12.7624 26.2831C14.6535 26.8457 15.5 27.6795 15.5 28.2564C15.5 28.7739 14.8479 29.3854 13.7983 29.8519C12.4859 30.4351 10.7225 30.7564 8.83334 30.7564C4.76371 30.7564 2.16666 29.2757 2.16666 28.2564C2.16666 27.6795 3.01313 26.8457 4.9043 26.2831L4.42904 24.6857C1.93209 25.4285 0.5 26.7299 0.5 28.2564V46.8279C0.5 48.0142 1.46314 49.065 3.2121 49.7868C4.72719 50.412 6.72345 50.7564 8.83334 50.7564C10.9432 50.7564 12.9395 50.412 14.4545 49.7868C16.2035 49.065 17.1666 48.0142 17.1666 46.8279V28.2564C17.1666 26.7299 15.7345 25.4285 13.2376 24.6857ZM3.83334 48.2399C2.82048 47.8191 2.16666 47.2659 2.16666 46.8279V44.9831C2.6883 45.3201 3.24768 45.5947 3.83334 45.8012V48.2399ZM8 49.0694C7.15925 49.0332 6.32299 48.9268 5.5 48.7511V46.2668C6.32406 46.4336 7.15998 46.5352 8 46.5706V49.0694ZM12.1666 48.7511C11.3436 48.9268 10.5075 49.0332 9.66664 49.0694V46.5706C10.5067 46.5352 11.3426 46.4336 12.1666 46.2668V48.7511ZM15.5 46.8279C15.5 47.2659 14.8462 47.8191 13.8334 48.2399V45.8012C14.419 45.5947 14.9784 45.3201 15.5 44.9831V46.8279ZM15.5 42.423C15.5 42.9407 14.8479 43.552 13.7983 44.0186C12.4859 44.6019 10.7225 44.923 8.83334 44.923C4.76371 44.923 2.16666 43.4424 2.16666 42.423V30.8165C3.66213 31.8059 6.04601 32.423 8.83334 32.423C11.6206 32.423 14.0045 31.8059 15.5 30.8165V42.423Z" fill="white"/>
<path d="M5.50066 33.2567H3.83398V42.4234H5.50066V33.2567Z" fill="white"/>
<path d="M9.66664 34.0898H8V43.2565H9.66664V34.0898Z" fill="white"/>
<path d="M13.8327 33.2567H12.166V42.4234H13.8327V33.2567Z" fill="white"/>
<path d="M8.00066 21.5898C8.00066 21.3688 8.08845 21.1568 8.24473 21.0006C8.40101 20.8443 8.61298 20.7565 8.83398 20.7565C9.055 20.7565 9.26696 20.8443 9.42324 21.0006C9.57952 21.1568 9.66736 21.3688 9.66736 21.5898V28.2565H11.334V21.5898C11.334 20.9268 11.0706 20.2909 10.6017 19.8221C10.1329 19.3532 9.49703 19.0898 8.83398 19.0898C8.17095 19.0898 7.53506 19.3532 7.06622 19.8221C6.59738 20.2909 6.33398 20.9268 6.33398 21.5898V28.2565H8.00066V21.5898Z" fill="white"/>
<path d="M10.5 17.4234H22.5834L24.8333 20.4234C24.9109 20.5269 25.0115 20.6109 25.1273 20.6687C25.243 20.7266 25.3706 20.7567 25.5 20.7567C25.6294 20.7567 25.757 20.7266 25.8727 20.6687C25.9885 20.6109 26.0891 20.5269 26.1667 20.4234L28.4166 17.4234H40.5C41.1628 17.4226 41.7983 17.159 42.2669 16.6904C42.7356 16.2216 42.9993 15.5862 43 14.9234V3.25671C42.9993 2.5939 42.7356 1.95846 42.2669 1.48978C41.7983 1.02111 41.1628 0.757472 40.5 0.756714H10.5C9.83718 0.757472 9.20175 1.02111 8.73307 1.48978C8.26439 1.95846 8.00075 2.5939 8 3.25671V14.9234C8.00075 15.5862 8.26439 16.2216 8.73307 16.6904C9.20175 17.159 9.83718 17.4226 10.5 17.4234ZM9.66664 3.25671C9.66691 3.03578 9.75482 2.82396 9.911 2.66774C10.0673 2.51151 10.2791 2.42363 10.5 2.42338H40.5C40.7209 2.42363 40.9327 2.51151 41.089 2.66774C41.2452 2.82396 41.3331 3.03578 41.3334 3.25671V14.9234C41.3331 15.1444 41.2452 15.3562 41.089 15.5124C40.9327 15.6686 40.7209 15.7564 40.5 15.7567H28C27.8706 15.7567 27.743 15.7868 27.6273 15.8447C27.5115 15.9025 27.4109 15.9865 27.3333 16.0901L25.5 18.5345L23.6667 16.0901C23.5891 15.9865 23.4885 15.9025 23.3727 15.8447C23.257 15.7868 23.1294 15.7567 23 15.7567H10.5C10.2791 15.7564 10.0673 15.6686 9.911 15.5124C9.75482 15.3562 9.66691 15.1444 9.66664 14.9234V3.25671Z" fill="white"/>
<path d="M17.166 14.0898H20.4994C21.8255 14.0898 23.0972 13.563 24.0349 12.6254C24.9726 11.6877 25.4994 10.4159 25.4994 9.08984C25.4994 7.76376 24.9726 6.492 24.0349 5.55432C23.0972 4.61663 21.8255 4.08984 20.4994 4.08984H17.166C15.8399 4.08984 14.5682 4.61663 13.6305 5.55432C12.6928 6.492 12.166 7.76376 12.166 9.08984C12.166 10.4159 12.6928 11.6877 13.6305 12.6254C14.5682 13.563 15.8399 14.0898 17.166 14.0898ZM23.7272 8.25652H22.0953C21.9398 7.33754 21.5297 6.48058 20.9117 5.78293C21.5745 5.86658 22.197 6.14695 22.6988 6.58787C23.2007 7.02879 23.5589 7.61002 23.7272 8.25652ZM22.0953 9.92321H23.7272C23.5589 10.5697 23.2007 11.1509 22.6988 11.5918C22.197 12.0328 21.5745 12.3131 20.9117 12.3968C21.5297 11.6991 21.9398 10.8421 22.0953 9.92321ZM17.166 5.75652C17.8253 5.75652 18.4697 5.95201 19.0179 6.31828C19.5661 6.68455 19.9933 7.20515 20.2457 7.81423C20.4979 8.42333 20.5639 9.09354 20.4353 9.74015C20.3067 10.3868 19.9892 10.9807 19.523 11.4468C19.0568 11.913 18.4629 12.2305 17.8163 12.3591C17.1697 12.4878 16.4995 12.4218 15.8904 12.1695C15.2813 11.9171 14.7607 11.4899 14.3945 10.9418C14.0282 10.3936 13.8327 9.74912 13.8327 9.08984C13.8337 8.2061 14.1852 7.35884 14.8101 6.73394C15.435 6.10903 16.2823 5.75753 17.166 5.75652Z" fill="white"/>
<path d="M32.1675 9.435L33.2449 10.5125C33.4011 10.6687 33.6131 10.7565 33.8341 10.7565C34.0551 10.7565 34.2671 10.6687 34.4234 10.5125L38.0008 6.9351V9.08984H39.6675V4.92318C39.6675 4.70217 39.5797 4.49022 39.4234 4.33393C39.2671 4.17766 39.0551 4.08986 38.8341 4.08984H34.6675V5.75652H36.8222L33.8341 8.74469L32.7568 7.66722C32.6004 7.51099 32.3885 7.42323 32.1675 7.42323C31.9465 7.42323 31.7345 7.51099 31.5781 7.66722L26.5781 12.6672L27.7568 13.8458L32.1675 9.435Z" fill="white"/>
</g>
<defs>
<clipPath id="clip0_257_1179">
<rect width="50" height="50" fill="white" transform="translate(0.5 0.756714)"/>
</clipPath>
</defs>
</svg>
