<svg width="51" height="51" viewBox="0 0 51 51" fill="none" xmlns="http://www.w3.org/2000/svg">
<g clip-path="url(#clip0_257_1141)">
<path d="M46.7052 30.8642C46.508 30.511 46.062 30.3847 45.7086 30.5818C45.3555 30.7789 45.229 31.225 45.4261 31.5783C46.0401 32.6781 46.3647 33.9296 46.3647 35.1978C46.3647 37.7025 45.1146 40.0234 43.0209 41.4061C41.9205 42.1327 41.1936 43.2758 40.9914 44.5544H36.8671C36.6675 43.2723 35.9485 42.1344 34.8596 41.4213C32.8057 40.0759 31.5476 37.8111 31.4944 35.3628C31.4055 31.2693 34.6595 27.8604 38.7481 27.7639C40.4274 27.724 42.0181 28.2292 43.3575 29.2238C43.6821 29.465 44.141 29.3973 44.3821 29.0725C44.6234 28.7479 44.5555 28.2891 44.2309 28.0479C42.6269 26.8567 40.7202 26.2519 38.7135 26.2994C34.4291 26.4007 30.9104 29.5394 30.1709 33.6063H26.7362V29.7113C29.4516 28.6917 31.4331 26.1632 31.6572 23.1523H33.3117C35.3947 23.1523 37.0894 21.4577 37.0894 19.3748V17.1885C37.0894 15.1055 35.3947 13.411 33.3117 13.411H33.0256C33.1661 13.0979 33.2441 12.7506 33.2441 12.3856V7.60826C33.2441 5.00905 31.13 2.8944 28.5311 2.8944H27.8296C27.5426 2.38591 27.1426 1.95105 26.6537 1.6199C26.0228 1.19255 25.2867 0.966675 24.5255 0.966675H12.7647C11.6947 0.966675 10.8243 1.83669 10.8243 2.90612V12.3856C10.8243 12.7494 10.9041 13.0969 11.0473 13.411H10.7987C8.71575 13.411 7.02112 15.1057 7.02112 17.1885V19.3748C7.02112 21.4578 8.71575 23.1523 10.7987 23.1523H12.4532C12.6775 26.1636 14.6594 28.692 17.3751 29.7115V33.6063H11.7862C8.40139 33.6063 5.51477 36.0253 4.92259 39.3581L3.01146 50.1059C2.94056 50.5042 3.20599 50.8844 3.60433 50.9553C3.64759 50.9629 3.69085 50.9667 3.73333 50.9667C4.08157 50.9667 4.39046 50.7173 4.45355 50.3624L6.36467 39.6143C6.83245 36.9818 9.11252 35.0711 11.7861 35.0711H17.374V50.2342C17.374 50.6387 17.7019 50.9666 18.1065 50.9666C18.511 50.9666 18.8389 50.6387 18.8389 50.2342V41.2518L21.323 38.5584V40.639C21.323 41.0435 21.6507 41.3714 22.0554 41.3714C22.46 41.3714 22.7877 41.0435 22.7877 40.639V38.558L25.2716 41.2518V50.2343C25.2716 50.6388 25.5994 50.9667 26.004 50.9667C26.4086 50.9667 26.7364 50.6388 26.7364 50.2343V35.0711H30.0295C29.9631 38.0312 31.5277 41.0172 34.0571 42.6467C34.9345 43.2214 35.4584 44.2078 35.4587 45.2857V48.5768C35.4587 49.8946 36.5309 50.9667 37.8487 50.9667H40.009C41.3269 50.9667 42.3989 49.8946 42.3989 48.5768V45.2869C42.3989 44.2136 42.9332 43.2197 43.8282 42.6285C46.3339 40.9739 47.8299 38.196 47.8299 35.1978C47.8296 33.6802 47.4407 32.1817 46.7052 30.8642ZM35.6246 17.1885V19.3748C35.6246 20.65 34.5871 21.6874 33.3119 21.6874H31.681V14.8758H33.3119C34.5871 14.8758 35.6246 15.9132 35.6246 17.1885ZM12.2892 2.90612C12.2892 2.64441 12.5026 2.43151 12.7647 2.43151H24.5255C24.9927 2.43151 25.4449 2.57029 25.8326 2.83289C26.2199 3.09519 26.5164 3.46364 26.69 3.8985C26.8011 4.17682 27.0705 4.35935 27.3702 4.35935H28.5314C30.3224 4.35935 31.7795 5.81686 31.7795 7.60836V12.3857C31.7795 12.6651 31.6684 12.9186 31.4869 13.104C30.8676 10.8861 28.8304 9.25376 26.4176 9.25376C26.0131 9.25376 25.6852 9.5817 25.6852 9.98619C25.6852 10.3907 26.0131 10.7186 26.4176 10.7186C28.5122 10.7186 30.2162 12.4227 30.2162 14.5172V15.5038C29.414 14.7687 28.346 14.3193 27.1747 14.3193C25.1267 14.3193 23.3946 15.6931 22.8485 17.5671C22.4622 17.4153 21.8837 17.3217 21.2619 17.5658C20.7153 15.6924 18.9835 14.3193 16.936 14.3193C15.7646 14.3193 14.6967 14.7687 13.8944 15.5038V14.5172C13.8944 12.4226 15.5985 10.7186 17.6931 10.7186H22.9727C23.3774 10.7186 23.7051 10.3907 23.7051 9.98619C23.7051 9.5817 23.3774 9.25376 22.9727 9.25376H17.6931C15.2696 9.25376 13.2247 10.9005 12.6154 13.1335C12.4148 12.9454 12.2891 12.6785 12.2891 12.3857L12.2892 2.90612ZM30.2162 18.8256C30.2162 20.5026 28.8517 21.8671 27.1746 21.8671C25.4975 21.8671 24.1331 20.5026 24.1331 18.8256C24.1331 17.1484 25.4975 15.784 27.1746 15.784C28.8519 15.7842 30.2162 17.1484 30.2162 18.8256ZM16.936 21.8672C15.2589 21.8672 13.8944 20.5027 13.8944 18.8257C13.8944 17.1485 15.2589 15.7842 16.936 15.7842C18.6131 15.7842 19.9775 17.1484 19.9775 18.8257C19.9775 20.5028 18.6131 21.8672 16.936 21.8672ZM21.4424 19.4823C21.4424 19.1467 21.7154 18.8738 22.06 18.8738C22.3955 18.8738 22.6684 19.1467 22.6684 19.4823V21.5677C22.6684 21.9033 22.3954 22.1762 22.06 22.1762H22.0507C21.7152 22.1762 21.4424 21.9033 21.4424 21.5677V19.4823ZM8.48606 19.3748V17.1885C8.48606 15.9132 9.52355 14.8758 10.7988 14.8758H12.4297V21.6874H10.7988C9.52355 21.6874 8.48606 20.6499 8.48606 19.3748ZM13.8944 22.5819C13.8944 22.5072 13.8944 22.3279 13.8944 22.1473C14.6966 22.8824 15.7646 23.3319 16.936 23.3319C18.1406 23.3319 19.2355 22.8558 20.0449 22.0829C20.2749 22.9773 21.0857 23.641 22.0507 23.641H22.06C23.025 23.641 23.8357 22.9773 24.0659 22.083C24.8751 22.8558 25.97 23.3319 27.1747 23.3319C28.346 23.3319 29.414 22.8824 30.2162 22.1473C30.4401 25.6582 27.6224 28.7413 24.0681 28.73H20.0426C16.6525 28.73 13.8944 25.972 13.8944 22.5819ZM20.0426 30.1949H24.0681C24.4776 30.1949 24.8794 30.1614 25.2716 30.0988V33.9217L22.0557 35.8316L18.84 33.9217V30.0989C19.2319 30.1616 19.6334 30.1949 20.0426 30.1949ZM18.8389 35.6249L20.9042 36.8515L18.8389 39.091V35.6249ZM23.207 36.8515L25.2716 35.6255V39.0907L23.207 36.8515ZM40.9339 48.5768C40.9339 49.0868 40.5189 49.5018 40.0089 49.5018H37.8485C37.3384 49.5018 36.9234 49.0868 36.9234 48.5768V46.0192H40.9337L40.9339 48.5768Z" fill="white"/>
</g>
<defs>
<clipPath id="clip0_257_1141">
<rect width="50" height="50" fill="white" transform="translate(0.5 0.966675)"/>
</clipPath>
</defs>
</svg>
