<svg width="51" height="51" viewBox="0 0 51 51" fill="none" xmlns="http://www.w3.org/2000/svg">
<g clip-path="url(#clip0_257_1197)">
<path d="M20.7885 44.8292L20.6434 45.5379L20.7833 44.8285C20.3914 44.7512 20.011 45.0063 19.9337 45.3981C19.8565 45.7903 20.1115 46.1704 20.5037 46.2476L20.5169 46.2503C20.5628 46.2589 20.6084 46.2635 20.6536 46.2635C20.9938 46.2635 21.2971 46.0224 21.363 45.6758C21.4383 45.2832 21.1811 44.9042 20.7885 44.8292Z" fill="white"/>
<path d="M26.3174 45.062L26.3895 45.7816L26.3153 45.0623C25.9178 45.1031 25.6288 45.4583 25.6699 45.8558C25.7079 46.228 26.0221 46.5052 26.3883 46.5052C26.4131 46.5052 26.4384 46.5038 26.4632 46.5015L26.4832 46.4992C26.8788 46.4529 27.1595 46.0961 27.1154 45.7005C27.071 45.3053 26.7131 45.0205 26.3174 45.062Z" fill="white"/>
<path d="M23.55 45.153L23.5395 45.1526C23.1409 45.1345 22.8078 45.4442 22.7898 45.8432C22.7721 46.2422 23.0855 46.5801 23.4845 46.5981C23.4957 46.5989 23.5067 46.5989 23.518 46.5989C23.9022 46.5989 24.2225 46.2964 24.2398 45.9084C24.2579 45.5094 23.9493 45.1711 23.55 45.153Z" fill="white"/>
<path d="M18.1167 44.0944L18.1077 44.091C17.7316 43.9561 17.3218 44.1528 17.1869 44.5288C17.0516 44.9047 17.2514 45.3206 17.6273 45.4559C17.7083 45.4849 17.7909 45.4984 17.8718 45.4984C18.1683 45.4984 18.4467 45.315 18.5526 45.0197C18.6878 44.6437 18.4927 44.2292 18.1167 44.0944Z" fill="white"/>
<path d="M29.0475 44.5556L29.2256 45.2566L29.0452 44.5563C28.6583 44.6557 28.4254 45.0502 28.5249 45.437C28.609 45.7633 28.9028 45.9803 29.2249 45.9803C29.2848 45.9803 29.3454 45.9728 29.4061 45.957C29.4091 45.9562 29.4219 45.9528 29.4254 45.952C29.8092 45.8473 30.0338 45.4529 29.9313 45.0683C29.8288 44.684 29.4329 44.4553 29.0475 44.5556Z" fill="white"/>
<path d="M31.6635 43.6435L31.9502 44.3073L31.6613 43.6443C31.2951 43.804 31.1275 44.2301 31.2868 44.5962C31.4055 44.8686 31.6714 45.031 31.9506 45.031C32.0467 45.031 32.145 45.0114 32.2388 44.9707C32.2418 44.9692 32.2535 44.9643 32.2565 44.9628C32.6193 44.799 32.7794 44.374 32.6174 44.0104C32.4555 43.6465 32.0282 43.4834 31.6635 43.6435Z" fill="white"/>
<path d="M15.3532 10.6704C15.4693 10.6704 15.5872 10.6425 15.696 10.5846C16.0487 10.3966 16.1816 9.95842 15.9937 9.60581C15.8057 9.25356 15.368 9.11982 15.0153 9.30818L15.0066 9.31271C14.6544 9.50069 14.5252 9.93657 14.7131 10.2892C14.8428 10.5325 15.0945 10.6704 15.3532 10.6704Z" fill="white"/>
<path d="M6.98705 18.7495C7.09442 18.8057 7.20933 18.8324 7.32272 18.8324C7.58304 18.8324 7.83469 18.6916 7.96391 18.4448L7.97672 18.4195C8.15304 18.0609 8.00535 17.6273 7.6467 17.4514C7.29069 17.2758 6.86047 17.4205 6.6819 17.7742C6.4973 18.1276 6.63368 18.5642 6.98705 18.7495Z" fill="white"/>
<path d="M5.96834 21.4706C6.04519 21.4966 6.12318 21.509 6.20041 21.509C6.50179 21.509 6.78321 21.3188 6.88531 21.0174L6.89472 20.9888C7.01226 20.6072 6.79791 20.2022 6.4159 20.085C6.03728 19.9682 5.63531 20.1784 5.51438 20.5552C5.38742 20.9331 5.59048 21.3429 5.96834 21.4706Z" fill="white"/>
<path d="M8.41304 16.2188C8.54151 16.3123 8.69031 16.3575 8.83799 16.3575C9.06139 16.3575 9.28213 16.2539 9.42345 16.0595L9.43283 16.0467C9.66494 15.722 9.58924 15.2714 9.26521 15.0394C8.94084 14.8069 8.48876 14.8815 8.25595 15.2055L8.83874 15.6342L8.25368 15.2085C8.0186 15.5317 8.09018 15.9842 8.41304 16.2188Z" fill="white"/>
<path d="M12.8974 12.2331C13.0492 12.2331 13.2022 12.1853 13.3329 12.0858C13.6554 11.8499 13.7251 11.3974 13.4893 11.075C13.2531 10.7525 12.8006 10.6828 12.4785 10.9187L12.4604 10.9318C12.1424 11.1733 12.0791 11.6281 12.3206 11.9464C12.4631 12.134 12.6789 12.2331 12.8974 12.2331Z" fill="white"/>
<path d="M5.3222 32.4401C5.41789 32.7509 5.70345 32.9502 6.01237 32.9502C6.08282 32.9502 6.15477 32.9396 6.2256 32.9177C6.60534 32.8013 6.8197 32.399 6.70593 32.0185C6.59706 31.6388 6.20337 31.4157 5.82024 31.5201C5.43484 31.6252 5.20767 32.023 5.31278 32.4084C5.31504 32.416 5.31994 32.4325 5.3222 32.4401Z" fill="white"/>
<path d="M10.7117 14.1392C10.8997 14.1392 11.0877 14.0665 11.2297 13.9218C11.5119 13.6393 11.5119 13.1811 11.2297 12.899C10.9472 12.6165 10.4891 12.6165 10.2066 12.899L10.1944 12.9111C9.91489 13.1962 9.92059 13.6536 10.2058 13.9332C10.3463 14.0711 10.529 14.1392 10.7117 14.1392Z" fill="white"/>
<path d="M6.12248 29.2865C6.07162 28.8935 5.71259 28.6147 5.31928 28.6615C4.92296 28.7089 4.63966 29.0687 4.68676 29.4654L4.6909 29.4945C4.74364 29.8539 5.05218 30.1115 5.40518 30.1115C5.43984 30.1115 5.47525 30.1089 5.51104 30.1036C5.90472 30.0463 6.17785 29.6802 6.12248 29.2865Z" fill="white"/>
<path d="M5.21345 27.2151C5.22099 27.2151 5.22814 27.2154 5.2353 27.2154C5.62484 27.2154 5.94657 26.9053 5.95786 26.5132L5.95862 26.4824C5.95862 26.0826 5.63464 25.759 5.2353 25.759C4.8386 25.759 4.51687 26.0777 4.51198 26.4729C4.50142 26.8715 4.81524 27.2034 5.21345 27.2151Z" fill="white"/>
<path d="M5.37137 24.3143C5.41469 24.3217 5.45726 24.3255 5.49983 24.3255C5.84341 24.3255 6.14819 24.0796 6.21111 23.7296C6.21298 23.719 6.21449 23.7085 6.216 23.6979C6.2744 23.3027 6.00126 22.9351 5.60569 22.877C5.21503 22.819 4.84922 23.0876 4.78631 23.4772C4.71775 23.8697 4.97919 24.2438 5.37137 24.3143Z" fill="white"/>
<path d="M39.4911 16.4472C39.6313 16.6506 39.8566 16.7594 40.0864 16.7594C40.2276 16.7594 40.3708 16.718 40.4959 16.6318C40.8247 16.4058 40.908 15.9551 40.682 15.6259L40.0807 16.0282L40.6797 15.6225C40.4552 15.2917 40.0053 15.2055 39.675 15.4296C39.3442 15.6537 39.258 16.1036 39.4821 16.4343L39.4911 16.4472Z" fill="white"/>
<path d="M43.1854 23.7259C42.7883 23.7704 42.5028 24.1286 42.5476 24.5257L42.5514 24.5569C42.603 24.9175 42.9126 25.1778 43.2667 25.1778C43.3007 25.1778 43.3353 25.1755 43.37 25.1706C43.7622 25.1145 44.0357 24.7533 43.9848 24.3614C43.9392 23.9655 43.5798 23.6814 43.1854 23.7259Z" fill="white"/>
<path d="M41.9651 21.6848L41.9682 21.6942C42.0608 22.0095 42.3489 22.2137 42.6617 22.2137C42.7291 22.2137 42.7977 22.2043 42.8659 22.184C43.2494 22.0713 43.4686 21.6693 43.356 21.2858L43.353 21.2764C43.2404 20.8929 42.8383 20.6736 42.4548 20.7867C42.0718 20.8993 41.8525 21.3013 41.9651 21.6848Z" fill="white"/>
<path d="M40.9442 18.9807C41.0705 19.2372 41.3285 19.3868 41.5968 19.3868C41.7034 19.3868 41.8119 19.3631 41.914 19.3125C42.2722 19.1362 42.4211 18.7053 42.2444 18.3467L41.5889 18.6522L42.2436 18.3452C42.0741 17.9835 41.6434 17.8279 41.2819 17.9974C40.9202 18.1669 40.7642 18.5975 40.9337 18.9592L40.9442 18.9807Z" fill="white"/>
<path d="M37.6688 14.1882C37.8105 14.3329 37.9976 14.4052 38.1853 14.4052C38.368 14.4052 38.5507 14.3367 38.6916 14.1984C38.9749 13.9211 38.9813 13.4679 38.7082 13.1824C38.4373 12.8904 37.9807 12.8727 37.6876 13.1432C37.3941 13.4141 37.3761 13.8718 37.6469 14.1652L37.6688 14.1882Z" fill="white"/>
<path d="M43.4206 26.7463C43.0232 26.7362 42.6905 27.0477 42.6765 27.4452C42.6585 27.8412 42.9625 28.1783 43.3588 28.2005C43.3728 28.2012 43.3859 28.2017 43.3999 28.2017C43.7808 28.2017 44.0999 27.9036 44.1214 27.5183L44.1225 27.4885C44.1337 27.0896 43.8196 26.758 43.4206 26.7463Z" fill="white"/>
<path d="M33.0437 10.6366L33.0611 10.646C33.1688 10.7033 33.2844 10.7304 33.3982 10.7304C33.6555 10.7304 33.9046 10.5918 34.0353 10.3488C34.2236 9.99804 34.091 9.55952 33.7414 9.36965L33.3914 10.0026L33.7391 9.36815C33.3888 9.17601 32.9491 9.30448 32.757 9.65484C32.5653 10.0048 32.6933 10.4449 33.0437 10.6366Z" fill="white"/>
<path d="M35.492 12.2229L35.5033 12.2316C35.634 12.3307 35.7873 12.3785 35.9399 12.3785C36.1584 12.3785 36.3743 12.2798 36.5166 12.0922C36.7581 11.7739 36.6956 11.3203 36.3777 11.0788L36.3728 11.0754C36.0559 10.832 35.602 10.8916 35.3586 11.2084C35.1152 11.5253 35.1751 11.9796 35.492 12.2229Z" fill="white"/>
<path d="M49.4324 37.6968L46.0369 34.2953C45.748 34.006 45.3641 33.8466 44.9553 33.8466C44.5469 33.8466 44.1627 34.006 43.8741 34.2953L43.7954 34.3741L43.5724 34.151C43.2969 33.8749 43.0838 33.5536 42.939 33.2036C42.9262 33.1572 42.9093 33.112 42.8875 33.0694C42.7767 32.7583 42.719 32.4271 42.719 32.0869V31.1248C42.785 31.1594 42.8569 31.1846 42.9342 31.1979C42.9756 31.205 43.0167 31.2084 43.0574 31.2084C43.4005 31.2084 43.7042 30.9635 43.7679 30.6154C43.8451 30.2243 43.5916 29.8443 43.2002 29.7658C43.028 29.7316 42.8577 29.7614 42.7146 29.839C42.6701 28.8113 42.25 27.8514 41.5192 27.119L38.225 23.8192C37.4859 23.0789 36.503 22.6713 35.4575 22.6713C34.6483 22.6713 33.8775 22.9165 33.2274 23.3705L32.8777 23.019V14.746C32.8777 13.7488 32.5157 12.7866 31.8587 12.0373C31.3911 11.5046 31.1339 10.8205 31.1339 10.1107V9.50456H31.1836C32.0267 9.50456 32.7127 8.81854 32.7127 7.97504V3.16344C32.7127 2.31994 32.0267 1.63391 31.1836 1.63391H17.6721C16.829 1.63391 16.143 2.31994 16.143 3.16344V7.97504C16.143 8.81854 16.829 9.50456 17.6721 9.50456H17.7837V9.82177C17.7837 10.6016 17.4804 11.3347 16.93 11.8858L15.4717 13.3468C14.6978 14.1222 14.2718 15.1525 14.2718 16.2488V20.9153C14.2718 21.5494 14.4239 22.148 14.6918 22.6785C13.7326 22.7338 12.8387 23.1336 12.1538 23.8192L8.85965 27.119C8.08584 27.8943 7.65976 28.9251 7.65976 30.0209V32.0869C7.65976 32.8667 7.35687 33.5999 6.80647 34.151L6.58608 34.3718C6.58495 34.3725 6.5842 34.3733 6.58345 34.3741L6.50509 34.2953C6.21613 34.006 5.83225 33.8466 5.42349 33.8466C5.01511 33.8466 4.63085 34.006 4.34227 34.2953L0.946426 37.6968C0.351191 38.2932 0.351191 39.2636 0.946426 39.86L2.10939 41.0244C2.39156 41.3074 2.84967 41.3078 3.13222 41.0256C3.41476 40.743 3.41552 40.2853 3.13297 40.0024L1.97038 38.8376C1.93761 38.8048 1.93761 38.7516 1.97038 38.7189L5.36623 35.3174C5.39788 35.2858 5.44948 35.2854 5.48113 35.3174L6.07147 35.9088L14.1327 43.9837L15.0358 44.8886C15.0685 44.9214 15.0685 44.9745 15.0358 45.0072L11.6403 48.4087C11.6082 48.4408 11.5567 48.4408 11.525 48.4087L5.18088 42.0537C4.8987 41.7708 4.44061 41.7704 4.15805 42.0526C3.87513 42.3351 3.87475 42.7929 4.15692 43.0758L10.5014 49.4308C10.79 49.7201 11.1743 49.8795 11.5831 49.8795C11.9914 49.8795 12.3753 49.7201 12.6642 49.4308L16.0597 46.0294C16.655 45.4334 16.655 44.4629 16.0597 43.8665L16.0228 43.8296L16.4511 43.4005C16.9514 42.8991 17.616 42.5977 18.3224 42.5522C19.3166 42.4877 20.252 42.0635 20.9561 41.3579L24.0754 38.2318C24.9751 37.9956 25.6754 37.2629 25.8656 36.3451C26.1862 36.4977 26.5445 36.5836 26.9227 36.5836C28.2832 36.5836 29.3899 35.4756 29.3899 34.1134V32.3958C29.7011 32.5379 30.0466 32.6178 30.4105 32.6178C31.7709 32.6178 32.8774 31.5098 32.8774 30.1475V25.07L35.1023 27.3058C35.2436 27.4479 35.4293 27.5186 35.6151 27.5186C35.7996 27.5186 35.9842 27.4486 36.1255 27.3081C36.4084 27.0263 36.4096 26.5686 36.1278 26.2853L34.2727 24.4212C34.6318 24.2234 35.0364 24.1179 35.4575 24.1179C36.1161 24.1179 36.7354 24.3749 37.201 24.8416L40.4952 28.141C40.9962 28.6432 41.2724 29.3108 41.2724 30.0209V32.0869C41.2724 33.2529 41.7256 34.3488 42.5484 35.1731L42.7729 35.398L41.7238 36.4491L35.3781 42.8057L35.0243 42.4512C35.0206 42.4478 35.0172 42.444 35.0134 42.4406L34.9512 42.378C34.2023 41.628 33.2074 41.1771 32.1503 41.1085C31.5072 41.0666 30.9022 40.7924 30.4444 40.3344L28.0676 37.9703C27.7843 37.6886 27.3262 37.6896 27.0445 37.9729C26.763 38.2563 26.7641 38.7143 27.0475 38.9958L29.4227 41.3579C30.1268 42.0635 31.0623 42.4877 32.0568 42.5522C32.7628 42.5977 33.4274 42.8991 33.9276 43.4001L33.9627 43.4351C33.9816 43.4566 34.0015 43.4766 34.0226 43.4955L34.3561 43.8293L34.3191 43.8665C33.7239 44.4629 33.7239 45.4329 34.3191 46.0294L37.7146 49.4308C38.0035 49.7201 38.3874 49.8795 38.7961 49.8795C39.2046 49.8795 39.5888 49.7201 39.8777 49.4308L49.4324 39.8596C50.0276 39.2633 50.0276 38.2932 49.4324 37.6968ZM43.2039 30.5043L43.1903 30.502L43.0585 30.4752L43.2039 30.5043ZM19.9321 40.3358C19.4767 40.7924 18.8717 41.0666 18.2289 41.1085C17.1715 41.1771 16.1765 41.628 15.4275 42.378L15.0007 42.8057L14.6165 42.4207C14.6116 42.4158 14.6067 42.4105 14.6018 42.4059L7.6059 35.398L7.83042 35.1731C8.6532 34.3488 9.10641 33.2529 9.10641 32.0869V30.0209C9.10641 29.3108 9.38219 28.6432 9.8836 28.141L13.1777 24.8416C13.6433 24.3749 14.2627 24.1179 14.9212 24.1179C15.3436 24.1179 15.7496 24.2242 16.1098 24.4235L14.2518 26.2845C13.9696 26.5671 13.97 27.0251 14.2525 27.3073C14.3939 27.4482 14.5788 27.5186 14.7638 27.5186C14.9491 27.5186 15.1345 27.4479 15.2758 27.3066L17.4951 25.0831V34.1134C17.4951 35.4756 18.6019 36.5836 19.9623 36.5836C20.3458 36.5836 20.7089 36.4954 21.033 36.3387C21.1798 37.0556 21.638 37.6599 22.2589 38.0043L19.9321 40.3358ZM31.4311 30.1479C31.4311 30.7122 30.973 31.1715 30.4105 31.1715C29.8477 31.1715 29.3899 30.7122 29.3899 30.1479V22.0794C29.3899 21.6801 29.0663 21.3561 28.6667 21.3561C28.2669 21.3561 27.9433 21.6801 27.9433 22.0794V34.1137C27.9433 34.678 27.4856 35.1369 26.9227 35.1369C26.4175 35.1369 25.9982 34.767 25.9173 34.2829V22.0712C25.9173 21.6715 25.5937 21.3479 25.1939 21.3479C25.0654 21.3479 24.9446 21.3817 24.8398 21.4405C24.6111 21.5622 24.4555 21.8026 24.4555 22.0794V34.1134C24.4555 34.2053 24.4608 34.2953 24.4706 34.3846V35.8422C24.4706 36.4065 24.0129 36.8658 23.4501 36.8658C22.8875 36.8658 22.4298 36.4065 22.4298 35.8422V22.0625C22.4298 21.6631 22.1059 21.3392 21.7066 21.3392C21.3068 21.3392 20.9828 21.6631 20.9828 22.0625V34.1134C20.9828 34.6777 20.5251 35.1369 19.9626 35.1369C19.3998 35.1369 18.9421 34.6777 18.9421 34.1134V20.6584C18.9421 20.2587 18.6181 19.9347 18.2188 19.9347C17.819 19.9347 17.4954 20.2587 17.4954 20.6584V23.1471C17.4348 23.1667 17.3761 23.1942 17.3214 23.2304C16.386 22.8789 15.7184 21.974 15.7184 20.9153V16.2488C15.7184 15.5386 15.9946 14.8711 16.4956 14.3689L17.9539 12.9079C18.7771 12.0836 19.2303 10.9878 19.2303 9.82177V9.50456H20.6845C21.0842 9.50456 21.4078 9.18058 21.4078 8.78124C21.4078 8.38153 21.0842 8.05792 20.6845 8.05792H17.6721C17.6266 8.05792 17.5896 8.02062 17.5896 7.97504V3.16344C17.5896 3.11785 17.6266 3.08056 17.6721 3.08056H31.1832C31.2291 3.08056 31.2661 3.11785 31.2661 3.16344V7.97504C31.2661 8.021 31.2291 8.05792 31.1832 8.05792H24.0804C23.681 8.05792 23.357 8.38153 23.357 8.78124C23.357 9.18058 23.681 9.50456 24.0804 9.50456H29.6872V10.1107C29.6872 11.1716 30.0718 12.1944 30.7707 12.9915C31.1964 13.4768 31.4311 14.1 31.4311 14.746V30.1479ZM48.4084 38.8376L38.8538 48.4087C38.838 48.425 38.8188 48.4329 38.7961 48.4329C38.7739 48.4329 38.7547 48.425 38.7385 48.4087L35.3431 45.0072C35.3103 44.9745 35.3103 44.9214 35.3431 44.8886L35.8896 44.3408L41.4367 38.7844L44.8977 35.3174C44.9293 35.2854 44.981 35.2854 45.0126 35.3174L48.4084 38.7189C48.4412 38.7516 48.4412 38.8048 48.4084 38.8376Z" fill="white"/>
<path d="M19.9614 4.79785C19.5368 4.79785 19.1914 5.14407 19.1914 5.5694C19.1914 5.99511 19.5368 6.34094 19.9614 6.34094C20.3864 6.34094 20.7318 5.99511 20.7318 5.5694C20.7318 5.14407 20.3864 4.79785 19.9614 4.79785Z" fill="white"/>
<path d="M45.1923 37.7697C44.7673 37.7697 44.4219 38.1159 44.4219 38.5412C44.4219 38.9666 44.7673 39.3127 45.1923 39.3127C45.6169 39.3127 45.9623 38.9666 45.9623 38.5412C45.9623 38.1159 45.6169 37.7697 45.1923 37.7697Z" fill="white"/>
<path d="M12.5541 45.1494C12.5541 44.724 12.2086 44.3778 11.784 44.3778C11.3591 44.3778 11.0137 44.724 11.0137 45.1494C11.0137 45.5747 11.3591 45.9209 11.784 45.9209C12.2086 45.9209 12.5541 45.5747 12.5541 45.1494Z" fill="white"/>
</g>
<defs>
<clipPath id="clip0_257_1197">
<rect width="50" height="50" fill="white" transform="translate(0.5 0.756714)"/>
</clipPath>
</defs>
</svg>
