<svg width="76" height="68" viewBox="0 0 76 68" fill="none" xmlns="http://www.w3.org/2000/svg">
<path d="M74.6663 23H1.33301M45.333 54.1667L54.4997 45L45.333 35.8333M30.6663 35.8333L21.4997 45L30.6663 54.1667M1.33301 18.6L1.33301 49.4C1.33301 55.5606 1.33301 58.6409 2.53194 60.9939C3.58654 63.0637 5.26933 64.7465 7.33911 65.8011C9.69214 67 12.7724 67 18.933 67H57.0663C63.2269 67 66.3072 67 68.6602 65.8011C70.73 64.7465 72.4128 63.0637 73.4674 60.9939C74.6663 58.6409 74.6663 55.5606 74.6663 49.4V18.6C74.6663 12.4394 74.6663 9.35914 73.4674 7.00611C72.4128 4.93633 70.73 3.25354 68.6602 2.19893C66.3072 1.00001 63.2269 1.00001 57.0663 1L18.933 1C12.7724 0.999999 9.69214 0.999999 7.33911 2.19893C5.26933 3.25353 3.58654 4.93632 2.53194 7.0061C1.33301 9.35913 1.33301 12.4394 1.33301 18.6Z" stroke="#009FC0" stroke-width="2" stroke-linecap="round" stroke-linejoin="round"/>
</svg>
