<svg width="65" height="65" viewBox="0 0 65 65" fill="none" xmlns="http://www.w3.org/2000/svg">
<path d="M9.0625 63.75V48.125M9.0625 16.875V1.25M1.25 9.0625H16.875M1.25 55.9375H16.875M35.625 4.375L30.2057 18.4652C29.3244 20.7565 28.8838 21.9022 28.1985 22.8659C27.5912 23.72 26.845 24.4662 25.9909 25.0735C25.0272 25.7588 23.8815 26.1994 21.5902 27.0807L7.5 32.5L21.5902 37.9193C23.8815 38.8006 25.0272 39.2412 25.9909 39.9265C26.845 40.5338 27.5912 41.28 28.1985 42.1341C28.8838 43.0978 29.3244 44.2435 30.2057 46.5348L35.625 60.625L41.0443 46.5348C41.9256 44.2435 42.3662 43.0978 43.0515 42.1341C43.6588 41.28 44.405 40.5338 45.2591 39.9265C46.2228 39.2412 47.3685 38.8006 49.6598 37.9193L63.75 32.5L49.6598 27.0807C47.3685 26.1994 46.2228 25.7588 45.2591 25.0735C44.405 24.4662 43.6588 23.72 43.0515 22.8659C42.3662 21.9022 41.9256 20.7565 41.0443 18.4652L35.625 4.375Z" stroke="#009FC0" stroke-width="2" stroke-linecap="round" stroke-linejoin="round"/>
</svg>
