<svg width="51" height="51" viewBox="0 0 51 51" fill="none" xmlns="http://www.w3.org/2000/svg">
<g clip-path="url(#clip0_257_1164)">
<path d="M48.6732 22.9167C47.6399 21.8833 46.3768 21.4841 45.4991 21.3311C44.4988 21.1563 43.5154 21.6831 43.1074 22.6112L39.419 31.0019C38.9969 31.9622 39.3162 33.0933 40.1783 33.6914L42.0976 35.0227C41.6999 35.7554 40.7494 37.2471 38.763 39.2337C36.7941 41.2025 35.2883 42.1626 34.5503 42.5659L33.2207 40.649C32.6228 39.7869 31.4914 39.4678 30.5312 39.8899L28.4263 40.8152C28.056 40.978 27.8877 41.4101 28.0504 41.7804C28.2133 42.1508 28.6454 42.3191 29.0157 42.1562L31.1206 41.2309C31.4409 41.0902 31.8178 41.1967 32.0173 41.4839L33.7045 43.9167C33.8959 44.1927 34.2503 44.3031 34.5644 44.1848C34.6508 44.1522 36.7157 43.3528 39.7989 40.2697C42.8821 37.1866 43.6814 35.1216 43.714 35.0351C43.8322 34.721 43.7218 34.3667 43.4459 34.1753L41.0132 32.488C40.7258 32.2886 40.6193 31.9116 40.7601 31.5915L44.4485 23.2009C44.5846 22.8915 44.9132 22.716 45.2476 22.7744C45.917 22.8911 46.8752 23.1902 47.6376 23.9527C49.0973 25.4123 49.4286 28.3088 48.5242 31.7008C47.5184 35.4719 45.2091 39.3045 42.0214 42.4921C38.8339 45.6798 35.0013 47.9892 31.2301 48.9949C27.8381 49.8992 24.9416 49.5679 23.482 48.1083C22.7195 47.3459 22.4203 46.3878 22.3037 45.7183C22.2454 45.3839 22.4208 45.0552 22.7303 44.9192L26.3718 43.3185C26.7422 43.1557 26.9103 42.7236 26.7476 42.3532C26.5849 41.9829 26.1529 41.8147 25.7824 41.9775L22.1408 43.5782C21.2128 43.9862 20.6864 44.9697 20.8608 45.9699C20.8653 45.9957 20.8708 46.023 20.8757 46.0496C19.0713 45.6369 17.3392 44.9839 15.7064 44.0999C16.2246 43.2022 16.5229 42.1622 16.5229 41.0533C16.5229 39.4542 15.9095 37.9419 14.7957 36.795C13.6846 35.651 12.1959 34.9932 10.6037 34.9429C10.2606 34.9306 9.95534 35.1614 9.8708 35.4945C9.78607 35.8276 9.94453 36.1748 10.2515 36.3291C11.4093 36.9116 12.1285 38.077 12.1285 39.3708C12.1285 41.2473 10.6018 42.774 8.72511 42.774C7.43131 42.774 6.26582 42.0549 5.68352 40.897C5.52903 40.59 5.18197 40.4318 4.84888 40.5163C4.51579 40.6009 4.2864 40.9059 4.29724 41.2493C4.34763 42.8414 5.00542 44.3301 6.14952 45.4412C7.29635 46.555 8.8086 47.1684 10.4077 47.1684C12.1389 47.1684 13.7032 46.4441 14.8167 45.2841C16.8755 46.4249 19.0852 47.2205 21.3968 47.6542C21.6407 48.1599 21.978 48.6755 22.4463 49.1439C23.6507 50.3483 25.4738 50.9665 27.6846 50.9664C28.8896 50.9664 30.2102 50.7827 31.6076 50.41C35.6241 49.3389 39.6903 46.8947 43.0573 43.5277C46.4244 40.1607 48.8685 36.0943 49.9397 32.0779C50.9956 28.1168 50.5342 24.7776 48.6732 22.9167ZM10.4073 45.7036C8.84122 45.7036 7.46168 44.9437 6.6203 43.7646C7.26363 44.0719 7.97923 44.2389 8.72472 44.2389C11.409 44.2389 13.5929 42.055 13.5929 39.3708C13.5929 38.6253 13.4261 37.9097 13.1186 37.2662C14.2979 38.1076 15.0577 39.4872 15.0577 41.0532C15.0577 43.6175 12.9715 45.7036 10.4073 45.7036Z" fill="white"/>
<path d="M9.68424 41.0259C9.8597 41.0259 10.0358 40.9631 10.1759 40.836C10.4756 40.5644 10.4982 40.1012 10.2266 39.8015C6.78562 36.0065 4.89056 31.0929 4.89056 25.9659C4.89056 14.6044 14.1338 5.36115 25.4952 5.36115C26.8939 5.36115 28.2912 5.50196 29.6486 5.77979C30.0447 5.86103 30.4319 5.60538 30.513 5.20911C30.5942 4.81283 30.3385 4.42583 29.9422 4.34478C28.4885 4.04723 26.9923 3.89636 25.4952 3.89636C19.6002 3.89636 14.0581 6.19198 9.88979 10.3604C5.72149 14.5288 3.42578 20.0709 3.42578 25.9659C3.42578 31.4574 5.45558 36.7205 9.14139 40.7854C9.28601 40.9449 9.48474 41.0259 9.68424 41.0259Z" fill="white"/>
<path d="M32.162 36.8269C32.2579 36.869 32.3579 36.8889 32.4564 36.8889C32.738 36.8889 33.0066 36.7255 33.1273 36.451L38.1753 24.9674C38.2749 24.7409 38.2534 24.4796 38.1182 24.2723C37.983 24.0651 37.7523 23.9403 37.5049 23.9403H31.1874C30.783 23.9403 30.4551 24.2682 30.4551 24.6727C30.4551 25.0772 30.783 25.4051 31.1874 25.4051H36.383L31.7864 35.8617C31.6234 36.2319 31.7917 36.664 32.162 36.8269Z" fill="white"/>
<path d="M22.5707 36.827C22.6666 36.8691 22.7666 36.889 22.8649 36.889C23.1466 36.889 23.4152 36.7256 23.5358 36.4511L32.1422 16.8731C32.3049 16.5029 32.1368 16.0708 31.7664 15.908C31.3962 15.7454 30.964 15.9134 30.8012 16.2838L22.1948 35.8617C22.0322 36.232 22.2004 36.6641 22.5707 36.827Z" fill="white"/>
<path d="M22.8515 28.7941H22.858C23.2594 28.7941 23.5867 28.4704 23.5902 28.068C23.5928 27.7585 23.6016 26.7213 23.611 25.4048H24.3518C24.7563 25.4048 25.0842 25.0769 25.0842 24.6724C25.0842 24.2679 24.7563 23.94 24.3518 23.94H23.6207C23.6386 21.0734 23.6511 17.73 23.6164 17.3132C23.5593 16.627 23.1634 16.0725 22.6081 15.9005C22.3476 15.8199 21.6713 15.7182 21.021 16.5159C20.3681 17.3171 16.8933 23.6044 16.4993 24.3186C16.3742 24.5455 16.3782 24.8216 16.5099 25.0447C16.6416 25.2679 16.8814 25.4048 17.1405 25.4048H22.1462C22.1396 26.3329 22.1325 27.2383 22.1254 28.0554C22.122 28.4599 22.4471 28.7907 22.8515 28.7941ZM18.3835 23.9401C19.8439 21.3147 21.7823 17.9004 22.1563 17.4414L22.157 17.4405C22.1842 17.7992 22.1753 20.8017 22.1559 23.9401H18.3835Z" fill="white"/>
<path d="M13.9463 21.9217C10.3812 27.0154 9.89498 27.6612 9.87725 27.6846C9.70807 27.9056 9.67871 28.2034 9.80153 28.4532C9.92434 28.7028 10.1782 28.8615 10.4565 28.8622L16.3083 28.8802H16.3106C16.714 28.8802 17.0417 28.5537 17.043 28.15C17.0443 27.7456 16.7173 27.4166 16.3128 27.4154L11.8827 27.4018C12.4759 26.5662 13.4748 25.1497 15.1462 22.7616C15.8381 21.773 16.287 20.8486 16.4805 20.0141C16.4861 19.9901 16.4904 19.9658 16.4935 19.9415L16.5503 19.4972C16.5543 19.4665 16.5562 19.4356 16.5562 19.4045C16.5562 17.3803 14.9094 15.7336 12.8853 15.7336C11.1351 15.7336 9.62016 16.9786 9.28339 18.6937C9.20546 19.0906 9.46405 19.4756 9.86089 19.5536C10.2579 19.6313 10.6428 19.3729 10.7207 18.9761C10.9231 17.946 11.8334 17.1984 12.8854 17.1984C14.0874 17.1984 15.0679 18.1646 15.091 19.3611L15.0455 19.7175C14.8895 20.3607 14.5198 21.1022 13.9463 21.9217Z" fill="white"/>
<path d="M31.4022 11.6105H34.5115C34.8458 14.3979 37.0616 16.6136 39.8489 16.9479V20.0572C39.8489 20.4617 40.1768 20.7896 40.5813 20.7896C40.9857 20.7896 41.3136 20.4617 41.3136 20.0572V16.9479C41.899 16.8777 42.4595 16.7257 42.9824 16.5016L44.5366 19.1936C44.6723 19.4285 44.9185 19.5599 45.1716 19.5599C45.2957 19.5599 45.4217 19.5282 45.537 19.4616C45.8874 19.2594 46.0074 18.8114 45.8051 18.4611L44.2498 15.7673C44.7118 15.4199 45.123 15.0086 45.4706 14.5466L48.1644 16.1019C48.2797 16.1685 48.4057 16.2001 48.5299 16.2001C48.783 16.2001 49.0292 16.0687 49.1648 15.8338C49.3671 15.4835 49.2471 15.0356 48.8968 14.8333L46.2047 13.2791C46.4288 12.7563 46.5808 12.1959 46.6511 11.6105H49.7604C50.1648 11.6105 50.4927 11.2826 50.4927 10.8781C50.4927 10.4737 50.1648 10.1458 49.7604 10.1458H46.6511C46.5808 9.5604 46.4288 8.99998 46.2047 8.47714L48.8968 6.9229C49.2471 6.72067 49.3671 6.27273 49.1648 5.92245C48.9626 5.57207 48.5146 5.45216 48.1644 5.65439L45.4706 7.20961C45.1231 6.74762 44.7118 6.3364 44.2498 5.98886L45.8051 3.29501C46.0074 2.94473 45.8874 2.49679 45.537 2.29456C45.1867 2.09232 44.7388 2.21233 44.5366 2.56261L42.9824 5.2547C42.4596 5.03059 41.8991 4.87855 41.3137 4.80833V1.69907C41.3137 1.29459 40.9858 0.966675 40.5814 0.966675C40.1769 0.966675 39.849 1.29459 39.849 1.69907V4.80833C39.2636 4.87855 38.7032 5.03059 38.1804 5.2547L36.6262 2.56261C36.4239 2.21224 35.976 2.09232 35.6257 2.29456C35.2754 2.49679 35.1554 2.94473 35.3577 3.29501L36.9129 5.98886C36.4509 6.3363 36.0397 6.74762 35.6922 7.20961L32.9984 5.65429C32.648 5.45196 32.2 5.57207 31.9979 5.92236C31.7956 6.27263 31.9156 6.72057 32.2659 6.9228L34.9579 8.47705C34.7338 8.99988 34.5818 9.5604 34.5116 10.1458H31.4023C30.9978 10.1458 30.6699 10.4737 30.6699 10.8781C30.6699 11.2826 30.9977 11.6105 31.4022 11.6105ZM35.9308 10.8781C35.9308 8.31387 38.017 6.22771 40.5813 6.22771C43.1456 6.22771 45.2317 8.31387 45.2317 10.8781C45.2317 13.4424 43.1456 15.5286 40.5813 15.5286C38.017 15.5286 35.9308 13.4424 35.9308 10.8781Z" fill="white"/>
<path d="M4.89437 36.8583C4.89437 36.4539 4.56645 36.126 4.16197 36.126H3.42958V34.9053C3.42958 34.5009 3.10166 34.173 2.69718 34.173C2.29271 34.173 1.96479 34.5009 1.96479 34.9053V36.126H1.2324C0.827917 36.126 0.5 36.4539 0.5 36.8583C0.5 37.2629 0.827917 37.5908 1.2324 37.5908H1.96479V38.8114C1.96479 39.2159 2.29271 39.5438 2.69718 39.5438C3.10166 39.5438 3.42958 39.2159 3.42958 38.8114V37.5908H4.16197C4.56645 37.5908 4.89437 37.2629 4.89437 36.8583Z" fill="white"/>
<path d="M16.296 48.2154H16.0649V47.6632C16.0649 47.2588 15.737 46.9308 15.3325 46.9308C14.9281 46.9308 14.6002 47.2588 14.6002 47.6632V48.2154H14.3691C13.9646 48.2154 13.6367 48.5433 13.6367 48.9479C13.6367 49.3523 13.9646 49.6802 14.3691 49.6802H14.6002V50.2324C14.6002 50.637 14.9281 50.9649 15.3325 50.9649C15.737 50.9649 16.0649 50.637 16.0649 50.2324V49.6802H16.296C16.7004 49.6802 17.0284 49.3523 17.0284 48.9479C17.0284 48.5433 16.7004 48.2154 16.296 48.2154Z" fill="white"/>
</g>
<defs>
<clipPath id="clip0_257_1164">
<rect width="50" height="50" fill="white" transform="translate(0.5 0.966675)"/>
</clipPath>
</defs>
</svg>
