<svg width="51" height="51" viewBox="0 0 51 51" fill="none" xmlns="http://www.w3.org/2000/svg">
<g clip-path="url(#clip0_257_1149)">
<path d="M21.1094 13.2064H22.7462V14.8433H21.1094V13.2064Z" fill="white"/>
<path d="M27.6582 13.2064H29.2951V14.8433H27.6582V13.2064Z" fill="white"/>
<path d="M25.2034 20.5722C26.5803 20.5722 27.6588 19.6734 27.6588 18.526H26.0219C26.0219 18.6703 25.7112 18.9352 25.2034 18.9352C24.6956 18.9352 24.3849 18.6703 24.3849 18.526H22.748C22.748 19.6734 23.8265 20.5722 25.2034 20.5722Z" fill="white"/>
<path d="M46.081 37.0202L42.9681 33.9073L41.8106 35.0648L44.9235 38.1776C45.419 38.6704 45.8119 39.2567 46.0794 39.9024C46.3468 40.5481 46.4835 41.2404 46.4816 41.9394V46.9674C46.481 47.5642 46.2435 48.1362 45.8216 48.5582C45.3997 48.9802 44.8276 49.2175 44.2309 49.2182H42.3894V45.1259H44.0262V43.489H40.7525V28.7569C40.7525 28.5398 40.6662 28.3316 40.5127 28.1781C40.3593 28.0246 40.151 27.9384 39.934 27.9384H35.4955L30.8274 24.9677L30.1499 22.2579L30.4363 22.1127C31.0788 21.7898 31.6186 21.2943 31.9952 20.6816C32.3717 20.069 32.57 19.3636 32.5679 18.6444V18.1169H32.9771C33.7366 18.1161 34.4647 17.814 35.0018 17.277C35.5388 16.74 35.8409 16.0119 35.8418 15.2524V14.4339C35.8409 13.6852 35.5472 12.9665 35.0235 12.4313C34.4998 11.8962 33.7876 11.5871 33.039 11.5701C33.2673 11.1501 33.3867 10.6795 33.3864 10.2015V7.6817C33.3846 6.10851 32.7588 4.60027 31.6464 3.48786C30.534 2.37545 29.0258 1.74971 27.4526 1.74792H22.9511C21.3779 1.74971 19.8697 2.37545 18.7573 3.48786C17.6449 4.60027 17.0191 6.10851 17.0173 7.6817V10.2015C17.0171 10.6796 17.1368 11.1501 17.3652 11.5701C16.6165 11.5869 15.9042 11.8961 15.3803 12.4311C14.8566 12.9663 14.5628 13.6851 14.5619 14.4339V15.2524C14.5628 16.0119 14.8649 16.74 15.4019 17.277C15.939 17.814 16.6671 18.1161 17.4266 18.1169H17.8358V18.6754C17.8333 19.3979 18.0334 20.1067 18.4132 20.7213C18.793 21.3359 19.3375 21.8318 19.9848 22.1527L20.2474 22.2839L19.5763 24.9677L14.9082 27.9384H10.4697C10.2526 27.9384 10.0445 28.0246 9.89097 28.1781C9.73748 28.3316 9.65125 28.5398 9.65125 28.7569V31.6916L6.61715 34.7257L7.77465 35.8832L9.65125 34.0066V43.489H6.37744V45.1259H8.01434V49.2182H6.17283C5.5761 49.2175 5.00401 48.9802 4.58206 48.5582C4.16011 48.1362 3.92276 47.5642 3.92208 46.9674V41.9394C3.92019 41.2404 4.05692 40.5481 4.32434 39.9024C4.59178 39.2567 4.98461 38.6704 5.48011 38.1776L6.13764 37.5202L4.98034 36.3627L4.32272 37.0202C3.6747 37.6646 3.16096 38.4313 2.81121 39.2757C2.46147 40.1201 2.28268 41.0254 2.28518 41.9394V46.9674C2.28635 47.9981 2.69631 48.9863 3.42514 49.7152C4.15396 50.4439 5.14212 50.8539 6.17283 50.8551H44.2309C45.2616 50.8539 46.2497 50.4439 46.9785 49.7152C47.7074 48.9863 48.1173 47.9981 48.1185 46.9674V41.9394C48.121 41.0254 47.9422 40.1201 47.5925 39.2757C47.2427 38.4313 46.729 37.6646 46.081 37.0202ZM22.7465 29.5753H27.6572V35.3044H22.7465V29.5753ZM28.8147 27.9384L30.227 26.5266L32.4465 27.9384H28.8147ZM19.3027 11.2839C19.1054 11.1806 18.9406 11.0249 18.8261 10.8339C18.7118 10.6429 18.6523 10.4241 18.6543 10.2015V9.59555L21.6245 7.94534C22.7175 7.33344 23.9492 7.01213 25.2019 7.01213C26.4544 7.01213 27.6862 7.33344 28.7792 7.94534L31.7494 9.59555V10.2015C31.7494 10.4237 31.6891 10.6418 31.575 10.8324C31.4608 11.0229 31.2969 11.179 31.101 11.2838C30.9052 11.3887 30.6844 11.4384 30.4625 11.4277C30.2406 11.4169 30.0257 11.3462 29.8409 11.2229L27.9259 9.94641C27.1198 9.4069 26.1718 9.11891 25.2019 9.11891C24.2319 9.11891 23.2839 9.4069 22.4778 9.94641L20.5628 11.2229C20.3787 11.348 20.1636 11.4199 19.9413 11.4307C19.719 11.4414 19.498 11.3907 19.3027 11.2839ZM34.2048 14.4339V15.2524C34.2044 15.5779 34.075 15.89 33.8449 16.1201C33.6147 16.3502 33.3027 16.4797 32.9771 16.4801H32.5679V13.2062H32.9771C33.3027 13.2066 33.6147 13.336 33.8449 13.5662C34.075 13.7964 34.2044 14.1085 34.2048 14.4339ZM22.9511 3.38483H27.4526C28.5918 3.3861 29.684 3.83922 30.4895 4.64476C31.2951 5.45031 31.7482 6.5425 31.7494 7.6817V7.72263L29.574 6.51449C28.2382 5.76659 26.7328 5.37386 25.2019 5.37386C23.6709 5.37386 22.1655 5.76659 20.8297 6.51449L18.6543 7.72263V7.6817C18.6555 6.5425 19.1086 5.45031 19.9142 4.64476C20.7197 3.83922 21.8119 3.3861 22.9511 3.38483ZM17.4266 16.4801C17.101 16.4797 16.789 16.3502 16.5588 16.1201C16.3286 15.89 16.1993 15.5779 16.1989 15.2524V14.4339C16.1993 14.1085 16.3286 13.7964 16.5588 13.5662C16.789 13.336 17.101 13.2066 17.4266 13.2062H17.8358V16.4801H17.4266ZM19.4727 18.6754V13.0372C20.1718 13.1385 20.8835 12.9775 21.4709 12.585L23.3858 11.3083C23.9232 10.9487 24.5552 10.7568 25.2018 10.7568C25.8483 10.7568 26.4803 10.9487 27.0177 11.3083L28.9327 12.585C29.5201 12.9773 30.2319 13.1384 30.931 13.0371V18.6444C30.9322 19.0608 30.8174 19.4692 30.5994 19.8239C30.3815 20.1785 30.069 20.4655 29.697 20.6525L25.7507 22.6508C25.5796 22.7369 25.3908 22.7821 25.1992 22.7827C25.0077 22.7831 24.8185 22.739 24.647 22.6536L20.7169 20.6886C20.3421 20.5028 20.0269 20.2158 19.807 19.8599C19.5871 19.5041 19.4712 19.0937 19.4727 18.6754ZM23.9149 24.1182C24.3152 24.3172 24.7563 24.4202 25.2034 24.4192C25.6503 24.418 26.091 24.3127 26.4902 24.1116L28.6522 23.0169L29.2062 25.2326L26.4997 27.9384H23.904L21.1975 25.2319L21.747 23.0338L23.9149 24.1182ZM20.1767 26.5265L21.589 27.9384H17.9571L20.1767 26.5265ZM11.2882 29.5753H21.1096V36.1229C21.1096 36.34 21.1958 36.5482 21.3493 36.7017C21.5028 36.8552 21.711 36.9414 21.928 36.9414H28.4757C28.6927 36.9414 28.9009 36.8552 29.0544 36.7017C29.2078 36.5482 29.2941 36.34 29.2941 36.1229V29.5753H39.1155V43.489H38.2971C36.7028 43.4911 35.164 44.0739 33.9684 45.1284C32.7727 46.1828 32.002 47.6368 31.8006 49.2182H29.2941V45.1259C29.2941 44.9088 29.2078 44.7007 29.0544 44.5472C28.9009 44.3936 28.6927 44.3075 28.4757 44.3075H21.928C21.711 44.3075 21.5028 44.3936 21.3493 44.5472C21.1958 44.7007 21.1096 44.9088 21.1096 45.1259V49.2182H18.6031C18.4016 47.6368 17.631 46.1828 16.4353 45.1284C15.2396 44.0739 13.7008 43.4911 12.1066 43.489H11.2882V29.5753ZM9.65125 49.2182V45.1259H12.1066C13.2668 45.1274 14.389 45.5389 15.2752 46.2877C16.1612 47.0366 16.7542 48.0745 16.9491 49.2182H9.65125ZM22.7465 49.2182V45.9444H27.6572V49.2182H22.7465ZM40.7525 49.2182H33.4546C33.6495 48.0745 34.2424 47.0366 35.1285 46.2877C36.0146 45.5389 37.1369 45.1274 38.2971 45.1259H40.7525V49.2182Z" fill="white"/>
<path d="M12.9258 31.2122H14.5627V32.849H12.9258V31.2122Z" fill="white"/>
<path d="M16.1992 31.2122H19.4731V32.849H16.1992V31.2122Z" fill="white"/>
<path d="M12.9258 34.4858H19.4734V36.1227H12.9258V34.4858Z" fill="white"/>
<path d="M31.7501 36.9414H34.6147C35.3741 36.9405 36.1023 36.6384 36.6393 36.1014C37.1763 35.5643 37.4784 34.8362 37.4792 34.0767V32.0306C37.4792 31.8136 37.3931 31.6054 37.2395 31.4519C37.086 31.2984 36.8779 31.2122 36.6608 31.2122H33.7962C33.0367 31.2131 32.3086 31.5151 31.7716 32.0522C31.2346 32.5891 30.9325 33.3172 30.9316 34.0767V36.1229C30.9316 36.3399 31.0179 36.5481 31.1714 36.7016C31.3249 36.8551 31.533 36.9414 31.7501 36.9414ZM32.5685 34.0767C32.5689 33.7513 32.6983 33.4392 32.9285 33.209C33.1587 32.9789 33.4707 32.8494 33.7962 32.849H35.8424V34.0767C35.842 34.4022 35.7125 34.7143 35.4824 34.9445C35.2523 35.1746 34.9401 35.304 34.6147 35.3044H32.5685V34.0767Z" fill="white"/>
</g>
<defs>
<clipPath id="clip0_257_1149">
<rect width="50" height="50" fill="white" transform="translate(0.5 0.966675)"/>
</clipPath>
</defs>
</svg>
